<?xml version="1.0" encoding="utf-8"?>
<!-- Generator: Adobe Illustrator 21.1.0, SVG Export Plug-In . SVG Version: 6.00 Build 0)  -->
<svg version="1.1" id="Layer_1" xmlns="http://www.w3.org/2000/svg" xmlns:xlink="http://www.w3.org/1999/xlink" x="0px" y="0px"
	 viewBox="0 0 1040 768" style="enable-background:new 0 0 1040 768;" xml:space="preserve">
<style type="text/css">
	.st0{fill:url(#SVGID_1_);}
	.st1{fill:url(#SVGID_2_);}
	.st2{fill:url(#SVGID_3_);}
	.st3{fill:url(#SVGID_4_);}
</style>
<linearGradient id="SVGID_1_" gradientUnits="userSpaceOnUse" x1="165.3779" y1="337.9463" x2="813.4442" y2="505.0831">
	<stop  offset="0" style="stop-color:#EBC539"/>
	<stop  offset="1" style="stop-color:#EC8D3C"/>
</linearGradient>
<path class="st0" d="M144.1,470.3c0,0,99.7-10.3,185.7-96.3s286-310,426-200s88,288,0,410S526.8,740,526.8,740s-51.1,22-123.1-50
	s-146.3-19.3-146.3-19.3S163.7,700,123.7,620S144.1,470.3,144.1,470.3z"/>
<linearGradient id="SVGID_2_" gradientUnits="userSpaceOnUse" x1="132.7105" y1="233.7666" x2="976.4605" y2="451.3704">
	<stop  offset="0" style="stop-color:#27BCBB"/>
	<stop  offset="1" style="stop-color:#78A2FB"/>
</linearGradient>
<path class="st1" d="M123.7,260.5c0,0,67.4-113,130.7-80s104.3,66,140.3,27s126-165.4,161-155.2s59,47.2,89,149.2s74,127,181,105
	s193.2-12,152.6,129c-40.6,141-132.6,196-183.6,193s-74-13-119-85s-78-93-140-62s-141,82-201,83s-189-17-211-126
	S119.7,281.5,123.7,260.5z"/>
</svg>
