<?xml version="1.0" encoding="utf-8"?>
<!-- Generator: Adobe Illustrator 21.1.0, SVG Export Plug-In . SVG Version: 6.00 Build 0)  -->
<svg version="1.1" id="Layer_1" xmlns="http://www.w3.org/2000/svg" xmlns:xlink="http://www.w3.org/1999/xlink" x="0px" y="0px"
	 viewBox="0 0 1203.9 341.8" style="enable-background:new 0 0 1203.9 341.8;" xml:space="preserve">
<style type="text/css">
	.st0{fill:url(#SVGID_1_);}
	.st1{fill:url(#SVGID_2_);}
	.st2{fill:url(#SVGID_3_);}
</style>
<g>
	<linearGradient id="SVGID_1_" gradientUnits="userSpaceOnUse" x1="94.2958" y1="167.6529" x2="1452.4635" y2="167.6529">
		<stop  offset="0" style="stop-color:#EC663E"/>
		<stop  offset="1" style="stop-color:#EBC739"/>
	</linearGradient>
	<path class="st0" d="M1205.5,292.7c-9.6,0-19.6-12.5-31.4-39.2c-10.3-23.4-20.8-55-30.9-85.7c-20.2-61-41-124.1-61.2-124.1
		c-20.2,0-41,63.1-61.2,124.1c-10.1,30.6-20.6,62.3-30.9,85.7c-11.8,26.8-21.8,39.2-31.4,39.2c0,0,0,0,0,0
		c-9.6,0-19.6-12.5-31.4-39.2c-10.3-23.4-20.8-55-30.9-85.7c-20.2-61-41-124.1-61.2-124.1c-20.2,0-41,63.1-61.2,124.1
		c-10.1,30.6-20.6,62.3-30.9,85.7c-11.8,26.8-21.8,39.2-31.4,39.2c0,0,0,0,0,0c-9.6,0-19.6-12.5-31.4-39.2
		c-10.3-23.4-20.8-55-30.9-85.7c-20.2-61-41-124.1-61.2-124.1c-20.2,0-41,63.1-61.2,124.1c-10.1,30.6-20.6,62.3-30.9,85.7
		c-11.8,26.8-21.8,39.2-31.4,39.2c-9.6,0-19.6-12.5-31.4-39.2c-10.3-23.4-20.8-55-30.9-85.7c-20.2-61-41-124.1-61.2-124.1
		c-20.2,0-41,63.1-61.2,124.1c-10.1,30.6-20.6,62.3-30.9,85.7c-11.8,26.8-21.8,39.2-31.4,39.2c-9.6,0-19.6-12.5-31.4-39.2
		c-10.3-23.4-20.8-55-30.9-85.7c-20.2-61-41-124.1-61.2-124.1v-1.1c9.6,0,19.6,12.5,31.4,39.2c10.3,23.4,20.8,55,30.9,85.7
		c20.2,61,41,124.1,61.2,124.1c20.2,0,41-63.1,61.2-124.1c10.1-30.6,20.6-62.3,30.9-85.7c11.8-26.8,21.8-39.2,31.4-39.2
		c9.6,0,19.6,12.5,31.4,39.2c10.3,23.4,20.8,55,30.9,85.7c20.2,61,41,124.1,61.2,124.1c20.2,0,41-63.1,61.2-124.1
		c10.1-30.6,20.6-62.3,30.9-85.7c11.8-26.8,21.8-39.2,31.4-39.2c0,0,0,0,0,0c9.6,0,19.6,12.5,31.4,39.2c10.3,23.4,20.8,55,30.9,85.7
		c20.2,61,41,124.1,61.2,124.1c20.2,0,41-63.1,61.2-124.1c10.1-30.6,20.6-62.3,30.9-85.7c11.8-26.8,21.8-39.2,31.4-39.2c0,0,0,0,0,0
		c9.6,0,19.6,12.5,31.4,39.2c10.3,23.4,20.8,55,30.9,85.7c20.2,61,41,124.1,61.2,124.1c20.2,0,41-63.1,61.2-124.1
		c10.1-30.6,20.6-62.3,30.9-85.7c11.8-26.8,21.8-39.2,31.4-39.2c9.6,0,19.6,12.5,31.4,39.2c10.3,23.4,20.8,55,30.9,85.7
		c20.2,61,41,124.1,61.2,124.1c20.2,0,41-63.1,61.2-124.1c10.1-30.6,20.6-62.3,30.9-85.7c11.8-26.8,21.8-39.2,31.4-39.2
		c9.6,0,19.6,12.5,31.4,39.2c10.3,23.4,20.8,55,30.9,85.7c20.2,61,41,124.1,61.2,124.1v1.1c-9.6,0-19.6-12.5-31.4-39.2
		c-10.3-23.4-20.8-55-30.9-85.7c-20.2-61-41-124.1-61.2-124.1c-20.2,0-41,63.1-61.2,124.1c-10.1,30.6-20.6,62.3-30.9,85.7
		C1225.1,280.3,1215.1,292.7,1205.5,292.7z"/>
</g>
<g>
	<linearGradient id="SVGID_2_" gradientUnits="userSpaceOnUse" x1="20.4697" y1="167.6529" x2="1378.6373" y2="167.6529">
		<stop  offset="0" style="stop-color:#EC663E"/>
		<stop  offset="1" style="stop-color:#EBC739"/>
	</linearGradient>
	<path class="st1" d="M1131.7,292.7c-9.6,0-19.6-12.5-31.4-39.2c-10.3-23.4-20.8-55-30.9-85.7c-20.2-61-41-124.1-61.2-124.1
		c-20.2,0-41,63.1-61.2,124.1c-10.1,30.6-20.6,62.3-30.9,85.7c-11.8,26.8-21.8,39.2-31.4,39.2c0,0,0,0,0,0
		c-9.6,0-19.6-12.5-31.4-39.2c-10.3-23.4-20.8-55-30.9-85.7c-20.2-61-41-124.1-61.2-124.1c-20.2,0-41,63.1-61.2,124.1
		c-10.1,30.6-20.6,62.3-30.9,85.7c-11.8,26.8-21.8,39.2-31.4,39.2c0,0,0,0,0,0c-9.6,0-19.6-12.5-31.4-39.2
		c-10.3-23.4-20.8-55-30.9-85.7c-20.2-61-41-124.1-61.2-124.1c-20.2,0-41,63.1-61.2,124.1c-10.1,30.6-20.6,62.3-30.9,85.7
		c-11.8,26.8-21.8,39.2-31.4,39.2s-19.6-12.5-31.4-39.2c-10.3-23.4-20.8-55-30.9-85.7c-20.2-61-41-124.1-61.2-124.1
		c-20.2,0-41,63.1-61.2,124.1c-10.1,30.6-20.6,62.3-30.9,85.7c-11.8,26.8-21.8,39.2-31.4,39.2c-9.6,0-19.6-12.5-31.4-39.2
		c-10.3-23.4-20.8-55-30.9-85.7c-20.2-61-41-124.1-61.2-124.1v-1.1c9.6,0,19.6,12.5,31.4,39.2c10.3,23.4,20.8,55,30.9,85.7
		c20.2,61,41,124.1,61.2,124.1c20.2,0,41-63.1,61.2-124.1c10.1-30.6,20.6-62.3,30.9-85.7c11.8-26.8,21.8-39.2,31.4-39.2
		c9.6,0,19.6,12.5,31.4,39.2c10.3,23.4,20.8,55,30.9,85.7c20.2,61,41,124.1,61.2,124.1c20.2,0,41-63.1,61.2-124.1
		c10.1-30.6,20.6-62.3,30.9-85.7c11.8-26.8,21.8-39.2,31.4-39.2c0,0,0,0,0,0c9.6,0,19.6,12.5,31.4,39.2c10.3,23.4,20.8,55,30.9,85.7
		c20.2,61,41,124.1,61.2,124.1c20.2,0,41-63.1,61.2-124.1c10.1-30.6,20.6-62.3,30.9-85.7c11.8-26.8,21.8-39.2,31.4-39.2c0,0,0,0,0,0
		c9.6,0,19.6,12.5,31.4,39.2c10.3,23.4,20.8,55,30.9,85.7c20.2,61,41,124.1,61.2,124.1c20.2,0,41-63.1,61.2-124.1
		c10.1-30.6,20.6-62.3,30.9-85.7c11.8-26.8,21.8-39.2,31.4-39.2c9.6,0,19.6,12.5,31.4,39.2c10.3,23.4,20.8,55,30.9,85.7
		c20.2,61,41,124.1,61.2,124.1c20.2,0,41-63.1,61.2-124.1c10.1-30.6,20.6-62.3,30.9-85.7c11.8-26.8,21.8-39.2,31.4-39.2
		c9.6,0,19.6,12.5,31.4,39.2c10.3,23.4,20.8,55,30.9,85.7c20.2,61,41,124.1,61.2,124.1v1.1c-9.6,0-19.6-12.5-31.4-39.2
		c-10.3-23.4-20.8-55-30.9-85.7c-20.2-61-41-124.1-61.2-124.1c-20.2,0-41,63.1-61.2,124.1c-10.1,30.6-20.6,62.3-30.9,85.7
		C1151.3,280.3,1141.3,292.7,1131.7,292.7z"/>
</g>
<g>
	<linearGradient id="SVGID_3_" gradientUnits="userSpaceOnUse" x1="168.1219" y1="167.6529" x2="1526.2896" y2="167.6529">
		<stop  offset="0" style="stop-color:#EC663E"/>
		<stop  offset="1" style="stop-color:#EBC739"/>
	</linearGradient>
	<path class="st2" d="M1279.3,292.7c-9.6,0-19.6-12.5-31.4-39.2c-10.3-23.4-20.8-55-30.9-85.7c-20.2-61-41-124.1-61.2-124.1
		c-20.2,0-41,63.1-61.2,124.1c-10.1,30.6-20.6,62.3-30.9,85.7c-11.8,26.8-21.8,39.2-31.4,39.2c0,0,0,0,0,0
		c-9.6,0-19.6-12.5-31.4-39.2c-10.3-23.4-20.8-55-30.9-85.7c-20.2-61-41-124.1-61.2-124.1c-20.2,0-41,63.1-61.2,124.1
		c-10.1,30.6-20.6,62.3-30.9,85.7c-11.8,26.8-21.8,39.2-31.4,39.2c0,0,0,0,0,0c-9.6,0-19.6-12.5-31.4-39.2
		c-10.3-23.4-20.8-55-30.9-85.7c-20.2-61-41-124.1-61.2-124.1c-20.2,0-41,63.1-61.2,124.1c-10.1,30.6-20.6,62.3-30.9,85.7
		c-11.8,26.8-21.8,39.2-31.4,39.2c-9.6,0-19.6-12.5-31.4-39.2c-10.3-23.4-20.8-55-30.9-85.7c-20.2-61-41-124.1-61.2-124.1
		c-20.2,0-41,63.1-61.2,124.1c-10.1,30.6-20.6,62.3-30.9,85.7c-11.8,26.8-21.8,39.2-31.4,39.2c-9.6,0-19.6-12.5-31.4-39.2
		c-10.3-23.4-20.8-55-30.9-85.7c-20.2-61-41-124.1-61.2-124.1v-1.1c9.6,0,19.6,12.5,31.4,39.2c10.3,23.4,20.8,55,30.9,85.7
		c20.2,61,41,124.1,61.2,124.1c20.2,0,41-63.1,61.2-124.1c10.1-30.6,20.6-62.3,30.9-85.7c11.8-26.8,21.8-39.2,31.4-39.2
		c9.6,0,19.6,12.5,31.4,39.2c10.3,23.4,20.8,55,30.9,85.7c20.2,61,41,124.1,61.2,124.1c20.2,0,41-63.1,61.2-124.1
		c10.1-30.6,20.6-62.3,30.9-85.7C642.4,55,652.4,42.6,662,42.6c0,0,0,0,0,0c9.6,0,19.6,12.5,31.4,39.2c10.3,23.4,20.8,55,30.9,85.7
		c20.2,61,41,124.1,61.2,124.1c20.2,0,41-63.1,61.2-124.1c10.1-30.6,20.6-62.3,30.9-85.7c11.8-26.8,21.8-39.2,31.4-39.2c0,0,0,0,0,0
		c9.6,0,19.6,12.5,31.4,39.2c10.3,23.4,20.8,55,30.9,85.7c20.2,61,41,124.1,61.2,124.1c20.2,0,41-63.1,61.2-124.1
		c10.1-30.6,20.6-62.3,30.9-85.7c11.8-26.8,21.8-39.2,31.4-39.2c9.6,0,19.6,12.5,31.4,39.2c10.3,23.4,20.8,55,30.9,85.7
		c20.2,61,41,124.1,61.2,124.1c20.2,0,41-63.1,61.2-124.1c10.1-30.6,20.6-62.3,30.9-85.7c11.8-26.8,21.8-39.2,31.4-39.2
		c9.6,0,19.6,12.5,31.4,39.2c10.3,23.4,20.8,55,30.9,85.7c20.2,61,41,124.1,61.2,124.1v1.1c-9.6,0-19.6-12.5-31.4-39.2
		c-10.3-23.4-20.8-55-30.9-85.7c-20.2-61-41-124.1-61.2-124.1c-20.2,0-41,63.1-61.2,124.1c-10.1,30.6-20.6,62.3-30.9,85.7
		C1298.9,280.3,1289,292.7,1279.3,292.7z"/>
</g>
</svg>
