<svg version="1.1" id="Layer_1" xmlns="http://www.w3.org/2000/svg" x="0" y="0" viewBox="0 0 113 44" xml:space="preserve"><style>.st0,.st1,.st2,.st3,.st4,.st6,.st7{fill-rule:evenodd;clip-rule:evenodd;fill:#19bed5}.st1,.st2,.st3,.st4,.st6,.st7{fill:#00a5d3}.st2,.st3,.st4,.st6,.st7{fill:#c2d840}.st3,.st4,.st6,.st7{fill:#a8b533}.st4,.st6,.st7{fill:#f9e4bb}.st6,.st7{fill:#f1bc3a}.st7{fill:#8c8c8c}.st9{fill:#f1bc3a}.st10{font-family:&apos;Baloo&apos;}.st11{font-size:12.0305px}</style><path class="st0" d="M11.8 27.7c-.8.7-1.9 1.1-3 1.1-2.7 0-4.9-2.2-4.9-4.9 0-2.1 1.2-3.8 3-4.5-.5.8-.8 1.8-.8 2.9 0 3.1 2.5 5.5 5.5 5.5.1-.1.1-.1.2-.1z"/><path class="st1" d="M9 28.8h-.2c-2.7 0-4.9-2.2-4.9-4.9 0-2.1 1.2-3.8 3-4.5-.3.5-.6 1.2-.7 1.8-.3.7-.4 1.4-.4 2.2 0 2.3 1.3 4.3 3.2 5.4z"/><path class="st2" d="M22.1 26.4h.8c4.5 0 8.1-3.7 8.1-8.2 0-1.2-.3-2.4-.8-3.5 4.8 1.9 4.2 7.7 1 11.1-2.1 2.3-6.9 3.1-9.1.6z"/><path class="st3" d="M22.1 26.4h.8c.4 0 .8 0 1.1-.1 4.4-.3 8.2-3.2 9.7-7.3.3 2.3-.7 4.9-2.4 6.8-2.2 2.3-7 3.1-9.2.6z"/><path class="st4" d="M16.9 26.3c2.5-.2 4.8-1.6 6.7-3.7 2.1-2.3 3.6-5.3 4.3-8.3.9-4.1-.2-7.2-2.1-9.2-1.1-1.1-2.4-1.9-3.9-2.3-1.5-.5-3.1-.6-4.6-.3-3.2.5-6.3 2.4-8 6-1 2.1-1.3 4.4-1 6.7.3 3.8 2.5 9 6.1 10.6.7.4 1.6.5 2.5.5z"/><path d="M16.9 26.3c2.5-.2 4.8-1.6 6.7-3.7 2.1-2.3 3.6-5.3 4.3-8.3.7-3.6.1-6.4-1.4-8.4-6.6 1.9-11.5 8-11.5 15.3 0 1.8.3 3.5.8 5.1h1.1z" fill-rule="evenodd" clip-rule="evenodd" fill="#f2ca72"/><path class="st6" d="M16.9 26.3c2.5-.2 4.8-1.6 6.7-3.7 2.1-2.3 3.6-5.3 4.3-8.3.9-4.1-.2-7.2-2.1-9.2-1.1-1.1-2.4-1.9-3.9-2.3-1.5-.5-3.1-.6-4.6-.3-1.5.1-3 .6-4.3 1.5.6-.1 1.2-.2 1.8-.2 5.3 0 9.7 5 9.7 11.2 0 5.9-3.9 10.7-8.8 11.2.4.1.8.1 1.2.1z"/><path class="st7" d="M8.2 18.9s-.1 0 0 0c-.4-1.3-.7-2.5-.8-3.7-.1-1.5-.1-3.1.3-4.6-.5-.1-.8-.5-.8-1 0-.6.5-1 1-1 .1 0 .3 0 .4.1.1-.2.1-.4.2-.5 1.8-3.9 5.1-6 8.6-6.5 1.7-.3 3.4-.1 5 .4s3.1 1.3 4.2 2.6c2.1 2.2 3.2 5.6 2.3 9.9-.7 3.1-2.2 6.2-4.4 8.6-2 2.2-4.5 3.7-7.2 3.9-1.1.1-2.1-.1-3.1-.6-1.7-.8-3.3-2.4-4.4-4.4-.5-1-1-2.1-1.3-3.2zm8.7 6.9c2.4-.2 4.7-1.6 6.5-3.5 2-2.2 3.5-5.1 4.1-8 .8-3.9-.2-6.9-2-8.9-1-1.1-2.3-1.8-3.7-2.2-1.4-.4-3-.6-4.5-.3-3.1.5-6.1 2.4-7.7 5.8-.9 2-1.2 4.3-1 6.5.1 1.1.3 2.2.7 3.3.3.4.7.7 1.2 1 1 .7 2.4 1.1 3.8 1.1s2.9-.4 4.2-1.4c.7-.5 1.3-1.2 1.9-2.1.2-.3.5-.4.8-.2.3.2.4.5.2.8-.6 1-1.4 1.8-2.2 2.4-1.5 1.2-3.3 1.6-4.9 1.6-1.5 0-2.9-.4-4.1-1 .1.3.3.5.4.8 1 1.8 2.4 3.2 3.9 3.9.7.3 1.6.5 2.4.4z"/><path class="st7" d="M14.5 12.1c.8 0 1.4-.6 1.4-1.4s-.6-1.4-1.4-1.4-1.4.6-1.4 1.4.7 1.4 1.4 1.4zM16.4 27.6c.4 0 .7.2 1 .4.6-.2 1.3-.5 1.8-.7 1.3-.4 1.2.6.2 1.5-.4.4-.2 1-.1 1.2.2.5.4 1.1.2 1.2-.4.2-1.4-.4-2.2-.8-.2.2-.5.2-.8.2-.4 0-.7-.2-1-.4-1 .5-2.4 1.5-2.1.3.3-1.1.5-.9-.4-2.1-.6-.9-.8-1.3-.1-1.3 1.2 0 1.8.6 2.5.9.3-.2.7-.4 1-.4zM15.9 31.9c0-.3.3-.6.6-.6s.6.3.6.6c0 2 .4 3.8 1.1 5.2.7 1.4 1.7 2.4 3 3.2.3.2.4.5.2.8-.2.3-.5.4-.8.2-1.6-.8-2.7-2.1-3.5-3.7-.8-1.6-1.2-3.5-1.2-5.7zM21.8 27.4c-.3-.2-.4-.5-.2-.8.2-.3.5-.4.8-.2 2.9 1.6 5.7 1.2 7.7-.2.8-.6 1.5-1.4 2.1-2.2.5-.9.9-1.8 1-2.8.3-2.2-.5-4.4-2.8-5.9-.3-.2-.4-.5-.2-.8.2-.3.5-.4.8-.2 2.8 1.8 3.7 4.5 3.3 7.1-.2 1.1-.6 2.3-1.2 3.3s-1.4 1.9-2.4 2.6c-2.3 1.4-5.5 1.9-8.9.1zM10.9 27.7c.3-.1.6 0 .8.3.1.3 0 .6-.3.8-2.2 1.1-4.3.8-5.8-.3-.7-.5-1.2-1.1-1.6-1.8-.4-.7-.6-1.5-.7-2.3-.1-1.9.7-3.9 3-5.4.3-.2.6-.1.8.2.2.3.1.7-.1.8-1.9 1.2-2.6 2.8-2.5 4.3 0 .6.2 1.2.5 1.8.3.5.7 1 1.2 1.4 1.2.9 2.9 1.1 4.7.2zM10 31.1c-.1-.3.2-.6.5-.7.3-.1.6.2.7.5.2 1.1.7 2.3 1.4 3.4s1.7 2.3 2.9 3.4c.2.2.3.6 0 .8-.2.2-.6.3-.8 0-1.3-1.2-2.3-2.4-3.1-3.6-.9-1.3-1.4-2.5-1.6-3.8zM22.6 37.8c.1.3-.1.6-.5.7-.3.1-.6-.1-.7-.5-.3-1.5-.4-3-.2-4.4.2-1.4.6-2.8 1.2-4.1.1-.3.5-.4.8-.3.3.1.4.5.3.8-.6 1.2-1 2.4-1.1 3.7-.2 1.3-.1 2.7.2 4.1z"/><path d="M18.8 3.3c1.4 0 2.7.3 3.9.8-.7-.1-1.3-.1-2-.1-5.8 0-10.5 4.3-11.3 9.8v-1c-.1-5.2 4.1-9.5 9.4-9.5z" fill-rule="evenodd" clip-rule="evenodd" fill="#fff"/><path class="st0" d="M3.3 19c.7 0 1.3-.6 1.3-1.3 0-.7-.6-1.3-1.3-1.3-.7.1-1.3.6-1.3 1.3 0 .7.6 1.3 1.3 1.3z"/><path class="st4" d="M35.5 13.2c.4 0 .8-.4.8-.8s-.3-.8-.8-.8-.8.4-.8.8c.1.5.4.8.8.8z"/><circle class="st6" cx="31.4" cy="10.7" r="1.1"/><path class="st3" d="M26.6 33c.6 0 1-.5 1-1 0-.6-.5-1-1-1s-1 .5-1 1c0 .6.4 1 1 1z"/><path class="st1" d="M7.5 34c.4 0 .8-.4.8-.8s-.4-.8-.8-.8-.8.4-.8.8.4.8.8.8z"/><path class="st2" d="M24.9 36.2c.3 0 .6-.3.6-.6s-.3-.6-.6-.6-.6.3-.6.6.3.6.6.6z"/><path class="st6" d="M32.2 6.8c.3 0 .6-.3.6-.6s-.3-.6-.6-.6-.6.3-.6.6c.1.3.3.6.6.6z"/><path class="st0" d="M5.7 15.9c.3 0 .6-.3.6-.6s-.3-.6-.6-.6-.6.3-.6.6.2.6.6.6z"/><text transform="translate(38.39 25.123)"><tspan x="0" y="0" class="st9 st10 st11">E</tspan><tspan x="6.6" y="0" class="st9 st10 st11">VENT</tspan><tspan x="35.7" y="0" class="st10 st11" fill="#8c8c8c">FINDA</tspan></text></svg>