<?xml version="1.0" encoding="utf-8"?>
<!-- Generator: Adobe Illustrator 24.0.3, SVG Export Plug-In . SVG Version: 6.00 Build 0)  -->
<svg version="1.1" id="Layer_1" xmlns="http://www.w3.org/2000/svg" xmlns:xlink="http://www.w3.org/1999/xlink" x="0px" y="0px"
	 viewBox="0 0 91 44" style="enable-background:new 0 0 91 44;" xml:space="preserve">
<style type="text/css">
	.st0{fill-rule:evenodd;clip-rule:evenodd;fill:#19BED5;}
	.st1{fill-rule:evenodd;clip-rule:evenodd;fill:#00A5D3;}
	.st2{fill-rule:evenodd;clip-rule:evenodd;fill:#C2D840;}
	.st3{fill-rule:evenodd;clip-rule:evenodd;fill:#A8B533;}
	.st4{fill-rule:evenodd;clip-rule:evenodd;fill:#F9E4BB;}
	.st5{fill-rule:evenodd;clip-rule:evenodd;fill:#F2CA72;}
	.st6{fill-rule:evenodd;clip-rule:evenodd;fill:#F1BC3A;}
	.st7{fill-rule:evenodd;clip-rule:evenodd;fill:#8C8C8C;}
	.st8{fill-rule:evenodd;clip-rule:evenodd;fill:#FFFFFF;}
	.st9{fill:#F1BC3A;}
	.st10{fill:#8C8C8C;}
</style>
<g>
	<g>
		<path class="st0" d="M11.8,28.7c-0.8,0.7-1.9,1.1-3,1.1c-2.7,0-4.9-2.2-4.9-4.9c0-2.1,1.2-3.8,3-4.5c-0.5,0.8-0.8,1.8-0.8,2.9
			c0,3.1,2.5,5.5,5.5,5.5C11.7,28.7,11.7,28.7,11.8,28.7z"/>
		<path class="st1" d="M9,29.8c-0.1,0-0.2,0-0.2,0c-2.7,0-4.9-2.2-4.9-4.9c0-2.1,1.2-3.8,3-4.5c-0.3,0.5-0.6,1.2-0.7,1.8
			c-0.3,0.7-0.4,1.4-0.4,2.2C5.8,26.7,7.1,28.7,9,29.8z"/>
		<path class="st2" d="M22.1,27.4c0.3,0,0.5,0,0.8,0c4.5,0,8.1-3.7,8.1-8.2c0-1.2-0.3-2.4-0.8-3.5c4.8,1.9,4.2,7.7,1,11.1
			C29.1,29.1,24.3,29.9,22.1,27.4z"/>
		<path class="st3" d="M22.1,27.4c0.3,0,0.5,0,0.8,0c0.4,0,0.8,0,1.1-0.1c4.4-0.3,8.2-3.2,9.7-7.3c0.3,2.3-0.7,4.9-2.4,6.8
			C29.1,29.1,24.3,29.9,22.1,27.4z"/>
		<path class="st4" d="M16.9,27.3c2.5-0.2,4.8-1.6,6.7-3.7c2.1-2.3,3.6-5.3,4.3-8.3c0.9-4.1-0.2-7.2-2.1-9.2
			c-1.1-1.1-2.4-1.9-3.9-2.3c-1.5-0.5-3.1-0.6-4.6-0.3c-3.2,0.5-6.3,2.4-8,6c-1,2.1-1.3,4.4-1,6.7c0.3,3.8,2.5,9,6.1,10.6
			C15.1,27.2,16,27.3,16.9,27.3z"/>
		<path class="st5" d="M16.9,27.3c2.5-0.2,4.8-1.6,6.7-3.7c2.1-2.3,3.6-5.3,4.3-8.3c0.7-3.6,0.1-6.4-1.4-8.4
			c-6.6,1.9-11.5,8-11.5,15.3c0,1.8,0.3,3.5,0.8,5.1C16.1,27.3,16.5,27.3,16.9,27.3z"/>
		<path class="st6" d="M16.9,27.3c2.5-0.2,4.8-1.6,6.7-3.7c2.1-2.3,3.6-5.3,4.3-8.3c0.9-4.1-0.2-7.2-2.1-9.2
			c-1.1-1.1-2.4-1.9-3.9-2.3c-1.5-0.5-3.1-0.6-4.6-0.3C15.8,3.6,14.3,4.1,13,5c0.6-0.1,1.2-0.2,1.8-0.2c5.3,0,9.7,5,9.7,11.2
			c0,5.9-3.9,10.7-8.8,11.2C16.1,27.3,16.5,27.3,16.9,27.3z"/>
		<path class="st7" d="M8.2,19.9C8.2,19.9,8.1,19.9,8.2,19.9c-0.4-1.3-0.7-2.5-0.8-3.7c-0.1-1.5-0.1-3.1,0.3-4.6
			c-0.5-0.1-0.8-0.5-0.8-1c0-0.6,0.5-1,1-1c0.1,0,0.3,0,0.4,0.1c0.1-0.2,0.1-0.4,0.2-0.5c1.8-3.9,5.1-6,8.6-6.5
			c1.7-0.3,3.4-0.1,5,0.4c1.6,0.5,3.1,1.3,4.2,2.6c2.1,2.2,3.2,5.6,2.3,9.9c-0.7,3.1-2.2,6.2-4.4,8.6c-2,2.2-4.5,3.7-7.2,3.9
			c-1.1,0.1-2.1-0.1-3.1-0.6c-1.7-0.8-3.3-2.4-4.4-4.4C9,22.1,8.5,21,8.2,19.9L8.2,19.9z M16.9,26.8c2.4-0.2,4.7-1.6,6.5-3.5
			c2-2.2,3.5-5.1,4.1-8c0.8-3.9-0.2-6.9-2-8.9c-1-1.1-2.3-1.8-3.7-2.2c-1.4-0.4-3-0.6-4.5-0.3c-3.1,0.5-6.1,2.4-7.7,5.8
			c-0.9,2-1.2,4.3-1,6.5c0.1,1.1,0.3,2.2,0.7,3.3c0.3,0.4,0.7,0.7,1.2,1c1,0.7,2.4,1.1,3.8,1.1c1.4,0,2.9-0.4,4.2-1.4
			c0.7-0.5,1.3-1.2,1.9-2.1c0.2-0.3,0.5-0.4,0.8-0.2c0.3,0.2,0.4,0.5,0.2,0.8c-0.6,1-1.4,1.8-2.2,2.4c-1.5,1.2-3.3,1.6-4.9,1.6
			c-1.5,0-2.9-0.4-4.1-1c0.1,0.3,0.3,0.5,0.4,0.8c1,1.8,2.4,3.2,3.9,3.9C15.2,26.7,16.1,26.9,16.9,26.8z"/>
		<path class="st7" d="M14.5,13.1c0.8,0,1.4-0.6,1.4-1.4s-0.6-1.4-1.4-1.4s-1.4,0.6-1.4,1.4S13.8,13.1,14.5,13.1z"/>
		<path class="st7" d="M16.4,28.6c0.4,0,0.7,0.2,1,0.4c0.6-0.2,1.3-0.5,1.8-0.7c1.3-0.4,1.2,0.6,0.2,1.5c-0.4,0.4-0.2,1-0.1,1.2
			c0.2,0.5,0.4,1.1,0.2,1.2c-0.4,0.2-1.4-0.4-2.2-0.8c-0.2,0.2-0.5,0.2-0.8,0.2c-0.4,0-0.7-0.2-1-0.4c-1,0.5-2.4,1.5-2.1,0.3
			c0.3-1.1,0.5-0.9-0.4-2.1c-0.6-0.9-0.8-1.3-0.1-1.3c1.2,0,1.8,0.6,2.5,0.9C15.7,28.8,16.1,28.6,16.4,28.6z"/>
		<path class="st7" d="M15.9,32.9c0-0.3,0.3-0.6,0.6-0.6c0.3,0,0.6,0.3,0.6,0.6c0,2,0.4,3.8,1.1,5.2c0.7,1.4,1.7,2.4,3,3.2
			c0.3,0.2,0.4,0.5,0.2,0.8c-0.2,0.3-0.5,0.4-0.8,0.2c-1.6-0.8-2.7-2.1-3.5-3.7C16.3,37,15.9,35.1,15.9,32.9z"/>
		<path class="st7" d="M21.8,28.4c-0.3-0.2-0.4-0.5-0.2-0.8c0.2-0.3,0.5-0.4,0.8-0.2c2.9,1.6,5.7,1.2,7.7-0.2
			c0.8-0.6,1.5-1.4,2.1-2.2c0.5-0.9,0.9-1.8,1-2.8c0.3-2.2-0.5-4.4-2.8-5.9c-0.3-0.2-0.4-0.5-0.2-0.8c0.2-0.3,0.5-0.4,0.8-0.2
			c2.8,1.8,3.7,4.5,3.3,7.1c-0.2,1.1-0.6,2.3-1.2,3.3c-0.6,1-1.4,1.9-2.4,2.6C28.4,29.7,25.2,30.2,21.8,28.4z"/>
		<path class="st7" d="M10.9,28.7c0.3-0.1,0.6,0,0.8,0.3c0.1,0.3,0,0.6-0.3,0.8c-2.2,1.1-4.3,0.8-5.8-0.3C4.9,29,4.4,28.4,4,27.7
			c-0.4-0.7-0.6-1.5-0.7-2.3c-0.1-1.9,0.7-3.9,3-5.4c0.3-0.2,0.6-0.1,0.8,0.2C7.3,20.5,7.2,20.9,7,21c-1.9,1.2-2.6,2.8-2.5,4.3
			c0,0.6,0.2,1.2,0.5,1.8c0.3,0.5,0.7,1,1.2,1.4C7.4,29.4,9.1,29.6,10.9,28.7z"/>
		<path class="st7" d="M10,32.1c-0.1-0.3,0.2-0.6,0.5-0.7c0.3-0.1,0.6,0.2,0.7,0.5c0.2,1.1,0.7,2.3,1.4,3.4c0.7,1.1,1.7,2.3,2.9,3.4
			c0.2,0.2,0.3,0.6,0,0.8c-0.2,0.2-0.6,0.3-0.8,0c-1.3-1.2-2.3-2.4-3.1-3.6C10.7,34.6,10.2,33.4,10,32.1z"/>
		<path class="st7" d="M22.6,38.8c0.1,0.3-0.1,0.6-0.5,0.7c-0.3,0.1-0.6-0.1-0.7-0.5c-0.3-1.5-0.4-3-0.2-4.4
			c0.2-1.4,0.6-2.8,1.2-4.1c0.1-0.3,0.5-0.4,0.8-0.3c0.3,0.1,0.4,0.5,0.3,0.8c-0.6,1.2-1,2.4-1.1,3.7C22.2,36,22.3,37.4,22.6,38.8z"
			/>
		<path class="st8" d="M18.8,4.3c1.4,0,2.7,0.3,3.9,0.8C22,5,21.4,5,20.7,5c-5.8,0-10.5,4.3-11.3,9.8c0-0.3,0-0.6,0-1
			C9.3,8.6,13.5,4.3,18.8,4.3z"/>
		<path class="st0" d="M3.3,20c0.7,0,1.3-0.6,1.3-1.3c0-0.7-0.6-1.3-1.3-1.3C2.6,17.5,2,18,2,18.7C2,19.4,2.6,20,3.3,20z"/>
		<path class="st4" d="M35.5,14.2c0.4,0,0.8-0.4,0.8-0.8c0-0.4-0.3-0.8-0.8-0.8s-0.8,0.4-0.8,0.8C34.8,13.9,35.1,14.2,35.5,14.2z"/>
		<circle class="st6" cx="31.4" cy="11.7" r="1.1"/>
		<path class="st3" d="M26.6,34c0.6,0,1-0.5,1-1c0-0.6-0.5-1-1-1s-1,0.5-1,1C25.6,33.6,26,34,26.6,34z"/>
		<path class="st1" d="M7.5,35c0.4,0,0.8-0.4,0.8-0.8c0-0.4-0.4-0.8-0.8-0.8c-0.4,0-0.8,0.4-0.8,0.8C6.7,34.6,7.1,35,7.5,35z"/>
		<path class="st2" d="M24.9,37.2c0.3,0,0.6-0.3,0.6-0.6c0-0.3-0.3-0.6-0.6-0.6c-0.3,0-0.6,0.3-0.6,0.6
			C24.3,36.9,24.6,37.2,24.9,37.2z"/>
		<path class="st6" d="M32.2,7.8c0.3,0,0.6-0.3,0.6-0.6c0-0.3-0.3-0.6-0.6-0.6c-0.3,0-0.6,0.3-0.6,0.6C31.7,7.5,31.9,7.8,32.2,7.8z"
			/>
		<path class="st0" d="M5.7,16.9c0.3,0,0.6-0.3,0.6-0.6c0-0.3-0.3-0.6-0.6-0.6c-0.3,0-0.6,0.3-0.6,0.6C5,16.6,5.3,16.9,5.7,16.9z"/>
	</g>
	<g>
		<path class="st9" d="M37.3,20c0-0.3,0.1-0.6,0.3-0.8c0.2-0.2,0.5-0.3,0.8-0.3h4c0.1,0.1,0.1,0.2,0.2,0.3c0,0.1,0.1,0.3,0.1,0.5
			c0,0.3-0.1,0.5-0.2,0.6c-0.1,0.1-0.3,0.2-0.5,0.2h-2.5v1.1h2.7c0.1,0.1,0.1,0.2,0.2,0.3c0,0.1,0.1,0.3,0.1,0.5
			c0,0.3-0.1,0.5-0.2,0.6c-0.1,0.1-0.3,0.2-0.5,0.2h-2.2v1.3h3.1c0.1,0.1,0.1,0.2,0.2,0.3c0,0.1,0.1,0.3,0.1,0.5
			c0,0.3-0.1,0.5-0.2,0.7s-0.3,0.2-0.5,0.2h-3.5c-0.3,0-0.6-0.1-0.8-0.3c-0.2-0.2-0.3-0.5-0.3-0.8V20z"/>
		<path class="st9" d="M48.3,25.9c-0.1,0.1-0.3,0.2-0.5,0.3c-0.2,0.1-0.5,0.1-0.8,0.1c-0.3,0-0.6,0-0.9-0.2
			c-0.2-0.1-0.4-0.2-0.5-0.4c-0.1-0.2-0.2-0.4-0.3-0.7c-0.1-0.3-0.3-0.6-0.4-1c-0.1-0.4-0.3-0.7-0.4-1.1c-0.1-0.4-0.3-0.8-0.4-1.2
			c-0.1-0.4-0.3-0.8-0.4-1.2c-0.1-0.4-0.2-0.8-0.3-1.1c0.1-0.1,0.3-0.2,0.5-0.3c0.2-0.1,0.4-0.1,0.7-0.1c0.3,0,0.5,0.1,0.7,0.2
			c0.2,0.1,0.3,0.4,0.4,0.7c0.2,0.8,0.4,1.5,0.7,2.3c0.2,0.7,0.5,1.5,0.7,2.2h0.1c0.2-0.8,0.4-1.6,0.7-2.5c0.2-0.9,0.4-1.8,0.7-2.7
			c0.1-0.1,0.3-0.1,0.5-0.2c0.2,0,0.4-0.1,0.6-0.1c0.3,0,0.5,0.1,0.8,0.2c0.2,0.1,0.3,0.4,0.3,0.7c0,0.2,0,0.4-0.1,0.8
			c-0.1,0.3-0.2,0.7-0.3,1.1c-0.1,0.4-0.3,0.9-0.4,1.3c-0.2,0.5-0.3,0.9-0.5,1.3c-0.2,0.4-0.3,0.8-0.5,1.1
			C48.5,25.5,48.4,25.8,48.3,25.9z"/>
		<path class="st9" d="M56.1,25.9c-0.1,0.1-0.3,0.2-0.5,0.3c-0.2,0.1-0.5,0.1-0.8,0.1c-0.3,0-0.6,0-0.9-0.2
			c-0.2-0.1-0.4-0.2-0.5-0.4c-0.1-0.2-0.2-0.4-0.3-0.7c-0.1-0.3-0.3-0.6-0.4-1c-0.1-0.4-0.3-0.7-0.4-1.1c-0.1-0.4-0.3-0.8-0.4-1.2
			c-0.1-0.4-0.3-0.8-0.4-1.2c-0.1-0.4-0.2-0.8-0.3-1.1c0.1-0.1,0.3-0.2,0.5-0.3c0.2-0.1,0.4-0.1,0.7-0.1c0.3,0,0.5,0.1,0.7,0.2
			c0.2,0.1,0.3,0.4,0.4,0.7c0.2,0.8,0.4,1.5,0.7,2.3c0.2,0.7,0.5,1.5,0.7,2.2h0.1c0.2-0.8,0.4-1.6,0.7-2.5c0.2-0.9,0.4-1.8,0.7-2.7
			c0.1-0.1,0.3-0.1,0.5-0.2c0.2,0,0.4-0.1,0.6-0.1c0.3,0,0.5,0.1,0.8,0.2c0.2,0.1,0.3,0.4,0.3,0.7c0,0.2,0,0.4-0.1,0.8
			c-0.1,0.3-0.2,0.7-0.3,1.1c-0.1,0.4-0.3,0.9-0.4,1.3c-0.2,0.5-0.3,0.9-0.5,1.3c-0.2,0.4-0.3,0.8-0.5,1.1
			C56.3,25.5,56.2,25.8,56.1,25.9z"/>
		<path class="st9" d="M65.9,25.9c-0.1,0.1-0.3,0.2-0.5,0.3c-0.2,0.1-0.5,0.1-0.8,0.1c-0.3,0-0.6,0-0.8-0.1
			c-0.3-0.1-0.5-0.3-0.6-0.6L62,23c-0.1-0.2-0.2-0.5-0.3-0.7s-0.2-0.5-0.3-0.8l-0.1,0c0,0.4,0,0.9,0.1,1.3c0,0.4,0,0.9,0,1.3v1.9
			c-0.1,0-0.2,0-0.4,0.1c-0.2,0-0.4,0-0.5,0c-0.2,0-0.3,0-0.5,0c-0.1,0-0.2-0.1-0.3-0.1c-0.1-0.1-0.2-0.2-0.2-0.3
			c0-0.1-0.1-0.3-0.1-0.5v-6c0.1-0.2,0.3-0.3,0.5-0.4c0.2-0.1,0.5-0.1,0.7-0.1c0.3,0,0.6,0,0.8,0.1c0.3,0.1,0.5,0.3,0.6,0.6l1.2,2.4
			c0.1,0.2,0.2,0.5,0.3,0.7c0.1,0.2,0.2,0.5,0.3,0.8l0.1,0c0-0.4-0.1-0.9-0.1-1.3c0-0.4,0-0.9,0-1.3v-1.9c0.1,0,0.2,0,0.4-0.1
			c0.2,0,0.4,0,0.5,0c0.4,0,0.6,0.1,0.8,0.2c0.2,0.1,0.3,0.4,0.3,0.8V25.9z"/>
		<path class="st9" d="M67.2,20.5c-0.1-0.1-0.1-0.2-0.2-0.4c0-0.2-0.1-0.3-0.1-0.5c0-0.3,0.1-0.5,0.2-0.7c0.1-0.1,0.3-0.2,0.5-0.2
			h5.2c0.1,0.1,0.1,0.2,0.2,0.4c0,0.2,0.1,0.3,0.1,0.5c0,0.3-0.1,0.5-0.2,0.7c-0.1,0.1-0.3,0.2-0.5,0.2h-1.3v5.6
			c-0.1,0-0.2,0-0.4,0.1c-0.2,0-0.4,0-0.6,0s-0.3,0-0.5,0c-0.1,0-0.3-0.1-0.4-0.2s-0.2-0.2-0.2-0.3c0-0.1-0.1-0.3-0.1-0.5v-4.7H67.2
			z"/>
		<path class="st10" d="M75.3,26.2c-0.3,0-0.6-0.1-0.8-0.3c-0.2-0.2-0.3-0.5-0.3-0.8v-6.2c0.1,0,0.2,0,0.4-0.1c0.2,0,0.4,0,0.6,0
			c0.2,0,0.3,0,0.5,0c0.1,0,0.3,0.1,0.4,0.2s0.2,0.2,0.2,0.3c0,0.1,0.1,0.3,0.1,0.5v4.8H79c0.1,0.1,0.1,0.2,0.2,0.4
			c0,0.1,0.1,0.3,0.1,0.5c0,0.3-0.1,0.5-0.2,0.7c-0.1,0.1-0.3,0.2-0.5,0.2H75.3z"/>
		<path class="st10" d="M83.4,26.1c-0.1,0-0.2,0-0.4,0.1c-0.2,0-0.4,0-0.5,0c-0.4,0-0.6-0.1-0.8-0.2c-0.2-0.1-0.3-0.4-0.3-0.8v-1.6
			c-0.2-0.3-0.4-0.6-0.6-1c-0.2-0.4-0.5-0.7-0.7-1.1s-0.4-0.7-0.6-1.1c-0.2-0.4-0.3-0.7-0.5-1c0.1-0.1,0.2-0.3,0.4-0.4
			c0.2-0.1,0.4-0.2,0.7-0.2c0.3,0,0.6,0.1,0.8,0.2c0.2,0.1,0.4,0.4,0.6,0.7l1,2h0.1c0.1-0.2,0.2-0.5,0.3-0.7
			c0.1-0.2,0.2-0.4,0.2-0.6s0.2-0.4,0.3-0.6c0.1-0.2,0.2-0.5,0.3-0.8c0.1-0.1,0.3-0.1,0.5-0.2c0.2,0,0.3-0.1,0.5-0.1
			c0.3,0,0.5,0.1,0.7,0.2c0.2,0.1,0.3,0.4,0.3,0.7c0,0.1,0,0.2-0.1,0.3s-0.1,0.3-0.3,0.6c-0.1,0.3-0.4,0.7-0.6,1.1
			c-0.3,0.5-0.7,1.1-1.1,1.9V26.1z"/>
	</g>
</g>
</svg>
