<svg version="1.1" id="Layer_1" xmlns="http://www.w3.org/2000/svg" x="0" y="0" viewBox="-320.5 497 1186 228" xml:space="preserve"><style>.st0{fill:#1673e6}</style><switch><g><path id="XMLID_30_" class="st0" d="M194.3 573.3c-32.4 0-50.7 26.6-50.7 55.3 0 12.8 2.8 55.2 57.4 55.2 16.1 0 27-4.3 35-8.7v-24s-13.1 10.3-32.2 10.3c-21.3 0-31.8-12-33.5-25h70.9v-13.6c0-8 .2-49.5-46.9-49.5zm-23.9 42c1.5-9.3 8.5-19.8 25.1-19.8 14.2 0 19.6 9.7 20.8 19.8h-45.9z"/><path id="XMLID_25_" class="st0" d="M335.1 612.8c0-37.8-27.1-39.6-40.6-39.6-20.3 0-38.2 8.7-38.2 8.7v23.9s16-10.4 31.7-10.4c20.2 0 21 10.7 21 23.2-36.7-1.4-59.2 6.1-59.2 33.4 0 27.2 27.8 31.8 48.5 31.8 15.8 0 37-3.9 37-3.9s-.2-32.4-.2-67.1zm-26.5 49s-32.4 6.3-32.4-11.9c0-15.4 24.2-13.4 32.4-12.9v24.8z"/><path id="XMLID_23_" class="st0" d="M391.8 661.6c-12.1 0-15.3-6.4-15.3-16v-47.8h29.6v-22.3h-29.6v-25.9H350v92.3c0 15.7-1.4 42 34.9 42 17 0 25.2-5.1 25.2-5.1l.1-22.9c.1 0-9.9 5.7-18.4 5.7z"/><path id="XMLID_22_" class="st0" d="M125.3 573.7v-26.9s-15.9-8.7-41.7-8.7-51.2 11.6-51.2 40.8c0 24 16.4 32.4 30 37.3 13.7 4.9 26.1 9.5 32.7 13 6.6 3.5 10.7 7 10.7 15.1 0 8-4.6 16-27 16s-44.7-14.8-44.7-14.8v27.1S51.5 684 78.8 684s54.6-10.3 54.6-41.8c0-26.7-24.1-36.3-31.1-39.2-5.8-2.7-27.4-10-31.3-12-5.6-2.9-11.8-6.1-11.2-14.8.6-8.1 6.7-14.6 22.5-14.6 22.7 0 43 12.1 43 12.1z"/><g id="XMLID_17_"><path id="XMLID_20_" class="st0" d="M794.6 681.5V540h-26.5v141.5z"/><path id="XMLID_19_" class="st0" d="M834 681.5l-42.1-57.3 41.2-48.5H864l-42.1 48.5 43.1 57.3z"/></g><path id="XMLID_5_" class="st0" d="M597.8 573.3c-32.4 0-50.7 26.6-50.7 55.3 0 12.8 2.8 55.2 57.4 55.2 16.1 0 27-4.3 35-8.7v-24s-13.1 10.3-32.2 10.3c-21.3 0-31.8-12-33.5-25h70.9v-13.6c0-8 .2-49.5-46.9-49.5zm-23.9 42c1.5-9.3 8.5-19.8 25.1-19.8 14.2 0 19.6 9.7 20.8 19.8h-45.9z"/><path id="XMLID_2_" class="st0" d="M707.2 573.3c-32.4 0-50.7 26.6-50.7 55.3 0 12.8 2.8 55.2 57.4 55.2 16.1 0 27-4.3 35-8.7v-24s-13.1 10.3-32.2 10.3c-21.3 0-31.8-12-33.5-25H754v-13.6c0-8 .2-49.5-46.8-49.5zm-24 42c1.5-9.3 8.5-19.8 25.1-19.8 14.2 0 19.6 9.7 20.8 19.8h-45.9z"/><path id="XMLID_1_" class="st0" d="M529.5 573.7v-26.9s-13.3-8.7-41.1-8.7c-37 0-71.8 26.8-71.8 74.2 0 45.4 28.8 71.6 72.3 71.6 30 0 43.9-8.6 43.9-8.6v-58.4c0-7.1-5.8-12.9-12.9-12.9h-42.2v23.6h28.6v30.3s-7.2 2.5-18.2 2.5c-28.9 0-43.9-22.3-43.9-47.9 0-27.2 17.1-50.7 44.8-50.7 19.8-.2 29.6 5.2 40.5 11.9z"/><g><path id="XMLID_36_" class="st0" d="M-269.2 521.6S-231.7 497-171 497s98.2 24.6 98.2 24.6L-97.4 652h-147.3l-24.5-130.4z"/><path id="XMLID_35_" class="st0" d="M-269.2 680.8s38.2 17.5 98.2 17.5 98.2-17.5 98.2-17.5v27.8S-111.7 725-171 725s-98.2-16.4-98.2-16.4v-27.8z"/><path id="XMLID_34_" class="st0" d="M-271.4 662.8v-46.4c0-7.5-6.1-13.6-13.6-13.6h-35.5v24.6h22.9v35.5h26.2z"/><path id="XMLID_33_" class="st0" d="M-70.6 662.8v-46.4c0-7.5 6.1-13.6 13.6-13.6h35.5v24.6h-22.9v35.5h-26.2z"/></g></g></switch></svg>