<svg xmlns="http://www.w3.org/2000/svg" width="14" height="12" viewBox="0 0 14 12"><path fill="#FFF" fill-rule="evenodd" d="M4.403 11.53c5.283 0 8.172-4.435 8.172-8.281 0-.126-.002-.252-.008-.377A5.887 5.887 0 0 0 14 1.365a5.675 5.675 0 0 1-1.65.458 2.914 2.914 0 0 0 1.263-1.61A5.71 5.71 0 0 1 11.79.92 2.852 2.852 0 0 0 9.693 0C8.107 0 6.82 1.304 6.82 2.91c0 .23.026.451.075.664A8.12 8.12 0 0 1 .975.534a2.93 2.93 0 0 0-.39 1.462c0 1.01.507 1.902 1.279 2.423a2.822 2.822 0 0 1-1.301-.364l-.001.037c0 1.41.99 2.587 2.304 2.854a2.844 2.844 0 0 1-1.297.05 2.88 2.88 0 0 0 2.684 2.022A5.715 5.715 0 0 1 0 10.223a8.054 8.054 0 0 0 4.403 1.308"></path></svg>